<svg xmlns="http://www.w3.org/2000/svg" width="256" height="256" viewBox="0 0 256 256">
  <title>overhead_1</title>
  <g id="7b045fa8-a62b-4e60-a761-636309fd53dd" data-name="overhead_1">
    <path d="M128,0A128,128,0,1,1,0,128,128,128,0,0,1,128,0Z" fill="#ffd200"/>
    <g>
      <g>
        <path d="M182.83,210.79H141c-1-30.3-1.91-60.43-2.88-91h27.42Q174.12,164.83,182.83,210.79Z" fill="#00355f"/>
        <path d="M159.13,85.85H137.42c-.55-13.43-1.1-26.85-1.66-40.64h15.55C153.87,58.53,156.47,72,159.13,85.85Z" fill="#00355f"/>
      </g>
      <path d="M74.44,210.79h41.78c1-30.3,1.92-60.43,2.88-91H91.69Q83.16,164.83,74.44,210.79Z" fill="#00355f"/>
      <path d="M98.39,85.85H120.1c.55-13.43,1.09-26.85,1.66-40.64H106.2Z" fill="#00355f"/>
      <path d="M35,97.2v12c5,0,9.75-.06,14.53,0s6.49,1.59,6.61,6.4c.14,5.45,0,10.9,0,16.74H68.51c1.47-5.92,3.08-11.92,4.41-18,.81-3.69,2.86-5.2,6.55-5.19,15.43,0,81.63,0,97.06,0,3.69,0,5.74,1.5,6.55,5.19,1.33,6.06,2.94,12.06,4.41,18h12.34c0-5.84-.11-11.29,0-16.74.12-4.81,1.76-6.33,6.61-6.4s9.56,0,14.53,0v-12Z" fill="#00355f"/>
    </g>
  </g>
</svg>
