<svg xmlns="http://www.w3.org/2000/svg" width="256" height="256" viewBox="0 0 256 256">
  <title>directions</title>
  <g id="1315039c-d97b-484f-a26b-bcda9dede538" data-name="directions">
    <circle cx="127.67" cy="128" r="128" fill="#00355f"/>
    <path d="M146.47,151.52V128h-37.6v28.2H90.07v-37.6a9.4,9.4,0,0,1,9.4-9.4h47V85.72l32.9,32.9m39.57,2.72-84.6-84.59h-.09a9.35,9.35,0,0,0-13.25,0L36.4,121.34a9.49,9.49,0,0,0,0,13.35l84.6,84.6a9.56,9.56,0,0,0,13.34,0l84.6-84.6A9.49,9.49,0,0,0,218.94,121.34Z" fill="#fff"/>
  </g>
</svg>
