<svg xmlns="http://www.w3.org/2000/svg" width="256" height="256" viewBox="0 0 256 256">
  <title>port</title>
  <g id="c0906173-8484-4749-b476-4e14d0a98923" data-name="port">
    <circle cx="128" cy="128" r="128" fill="#00355f"/>
    <path d="M84.22,79.22h87.56v28.89L128,93.81l-43.78,14.3m-15,66h.43c11.68,0,21.9-6.42,29.19-14.6,7.3,8.18,17.51,14.6,29.19,14.6s21.89-6.42,29.19-14.6c7.29,8.18,17.51,14.6,29.19,14.6h.36l13.86-48.82a7.87,7.87,0,0,0-.43-5.62,7.51,7.51,0,0,0-4.38-3.65l-9.41-3.06V79.22a14.6,14.6,0,0,0-14.6-14.6H149.89V42.73H106.11V64.62H84.22a14.6,14.6,0,0,0-14.6,14.6v33.71L60.21,116a7.51,7.51,0,0,0-4.38,3.65,7.87,7.87,0,0,0-.43,5.62m131,63.41a50.88,50.88,0,0,1-29.19-9.7,50.23,50.23,0,0,1-58.38,0,50.88,50.88,0,0,1-29.19,9.7H55v14.6H69.62A63.83,63.83,0,0,0,98.81,196a63.47,63.47,0,0,0,58.38,0,63.61,63.61,0,0,0,29.19,7.3H201v-14.6Z" fill="#fff"/>
  </g>
</svg>
