<?xml version="1.0" encoding="utf-8"?>
<!-- Generator: Adobe Illustrator 22.1.0, SVG Export Plug-In . SVG Version: 6.00 Build 0)  -->
<svg version="1.1" id="Layer_1" xmlns="http://www.w3.org/2000/svg" xmlns:xlink="http://www.w3.org/1999/xlink" x="0px" y="0px"
	 viewBox="0 0 826.5 251" style="enable-background:new 0 0 826.5 251;" xml:space="preserve">
<style type="text/css">
	.st0{fill:#00335F;stroke:#00335F;stroke-width:2;stroke-miterlimit:10;}
	.st1{fill:#00335F;stroke:#00355F;stroke-width:3;stroke-miterlimit:10;}
	.st2{fill:#00335F;stroke:#FFFFFF;stroke-miterlimit:10;}
	.st3{opacity:0.8;fill:#00335F;stroke:#FFFFFF;stroke-miterlimit:10;}
	.st4{fill:#FFFFFF;stroke:#00355F;stroke-width:3;stroke-miterlimit:10;}
	.st5{fill:none;stroke:#1B1464;stroke-width:3;stroke-miterlimit:10;}
	.st6{fill:#00355F;stroke:#00355F;stroke-width:3;stroke-miterlimit:10;}
	.st7{fill:none;stroke:#000000;stroke-width:20;stroke-miterlimit:10;}
	.st8{fill:none;stroke:#000000;stroke-width:3;stroke-miterlimit:10;}
	.st9{fill:#FFFFFF;stroke:#1B1464;stroke-width:2;stroke-miterlimit:10;}
	.st10{fill:none;stroke:#000000;stroke-width:10;stroke-miterlimit:10;}
	.st11{fill:none;stroke:#1B1464;stroke-width:16;stroke-miterlimit:10;}
	.st12{fill:none;stroke:#00355F;stroke-width:3;stroke-miterlimit:10;}
	.st13{stroke:#000000;stroke-width:3;stroke-miterlimit:10;}
	.st14{fill:#FFFFFF;stroke:#FFFFFF;stroke-width:2;stroke-miterlimit:10;}
	.st15{fill:#00335F;stroke:#00355F;stroke-width:3;stroke-linecap:round;stroke-linejoin:round;stroke-miterlimit:10;}
	.st16{fill:none;stroke:#1B1464;stroke-width:3;stroke-linecap:round;stroke-linejoin:round;stroke-miterlimit:10;}
	.st17{fill:#FFFFFF;stroke:#1B1464;stroke-width:3;stroke-linecap:round;stroke-linejoin:round;stroke-miterlimit:10;}
	.st18{stroke:#1B1464;stroke-width:3;stroke-miterlimit:10;}
	.st19{fill:none;stroke:#1B1464;stroke-miterlimit:10;}
	.st20{fill:#00355F;stroke:#FFFFFF;stroke-miterlimit:10;}
	.st21{fill:#FFFFFF;stroke:#1B1464;stroke-miterlimit:10;}
	.st22{fill:#FFFFFF;stroke:#1B1464;stroke-width:3;stroke-miterlimit:10;}
	.st23{fill:#FFFFFF;}
	.st24{fill:#FFFFFF;stroke:#000000;stroke-width:10;stroke-miterlimit:10;}
	.st25{fill:none;stroke:#FFFFFF;stroke-miterlimit:10;}
	.st26{fill:none;stroke:#FFFFFF;stroke-width:0.75;stroke-miterlimit:10;}
	.st27{fill:#00355F;}
	.st28{fill:none;stroke:#FFFFFF;stroke-width:2;stroke-miterlimit:10;}
	.st29{fill:#FFFFFF;stroke:#00355F;stroke-width:2;stroke-miterlimit:10;}
	.st30{fill:none;stroke:#000000;stroke-width:2;stroke-miterlimit:10;}
	.st31{fill:#FFFFFF;stroke:#000000;stroke-width:5;stroke-miterlimit:10;}
	.st32{stroke:#FFFFFF;stroke-width:3;stroke-miterlimit:10;}
	.st33{fill:#FFFFFF;stroke:#FFFFFF;stroke-width:3;stroke-miterlimit:10;}
	.st34{fill:#00335F;stroke:#00335F;stroke-width:3;stroke-miterlimit:10;}
	.st35{stroke:#000000;stroke-linecap:round;stroke-linejoin:round;stroke-miterlimit:10;}
	.st36{fill:#2A2A2A;stroke:#2A2A2A;stroke-width:0.75;stroke-linecap:round;stroke-linejoin:round;stroke-miterlimit:10;}
	.st37{stroke:#000000;stroke-width:0.75;stroke-linecap:round;stroke-linejoin:round;stroke-miterlimit:10;}
	.st38{fill:#00335F;stroke:#1B1464;stroke-width:3;stroke-linecap:round;stroke-linejoin:round;stroke-miterlimit:10;}
	.st39{fill:none;stroke:#FFFFFF;stroke-width:3;stroke-linecap:round;stroke-linejoin:round;stroke-miterlimit:10;}
	.st40{fill:none;stroke:#FFFFFF;stroke-linecap:round;stroke-linejoin:round;stroke-miterlimit:10;}
	.st41{fill:none;stroke:#00355F;}
	.st42{fill:#00355F;stroke:#00355F;}
	.st43{fill:#FFFFFF;stroke:#00355F;}
	.st44{fill:#00355F;stroke:#FFFFFF;}
	.st45{fill:#00355F;stroke:#FFFFFF;stroke-width:0.5;}
	.st46{fill:none;stroke:#FFFFFF;stroke-width:0.5;}
	.st47{fill:none;stroke:#FFFFFF;stroke-width:0.5;stroke-linecap:round;stroke-linejoin:round;}
	.st48{fill:none;stroke:#FFFFFF;}
	.st49{fill:none;stroke:#FFFFFF;stroke-width:0.75;}
	.st50{fill:#00355F;stroke:#00355F;stroke-width:0.5;stroke-miterlimit:10;}
	.st51{fill:#00355F;stroke:#00355F;stroke-width:0.75;stroke-miterlimit:10;}
</style>
<path class="st42" d="M69.5,32.5h339h375c0,0,19,0,20,17s0,158,0,158l-111,8h-28h-635v-21h2l-2-35l21-117
	C50.5,42.5,53.5,32.5,69.5,32.5z"/>
<path class="st43" d="M185.5,104.5h-87c-2.2,0-4-1.8-4-4v-47c0-2.2,1.8-4,4-4h87c2.2,0,4,1.8,4,4v47
	C189.5,102.7,187.7,104.5,185.5,104.5z"/>
<path class="st43" d="M284.5,104.5h-87c-2.2,0-4-1.8-4-4v-47c0-2.2,1.8-4,4-4h87c2.2,0,4,1.8,4,4v47
	C288.5,102.7,286.7,104.5,284.5,104.5z"/>
<path class="st43" d="M383.5,104.5h-87c-2.2,0-4-1.8-4-4v-47c0-2.2,1.8-4,4-4h87c2.2,0,4,1.8,4,4v47
	C387.5,102.7,385.7,104.5,383.5,104.5z"/>
<path class="st43" d="M482.5,104.5h-87c-2.2,0-4-1.8-4-4v-47c0-2.2,1.8-4,4-4h87c2.2,0,4,1.8,4,4v47
	C486.5,102.7,484.7,104.5,482.5,104.5z"/>
<path class="st43" d="M581.5,104.5h-87c-2.2,0-4-1.8-4-4v-47c0-2.2,1.8-4,4-4h87c2.2,0,4,1.8,4,4v47
	C585.5,102.7,583.7,104.5,581.5,104.5z"/>
<path class="st43" d="M680.5,104.5h-87c-2.2,0-4-1.8-4-4v-47c0-2.2,1.8-4,4-4h87c2.2,0,4,1.8,4,4v47
	C684.5,102.7,682.7,104.5,680.5,104.5z"/>
<path class="st43" d="M84.5,88.5v54l-45,14l11-65c0,0-3-3,5-3S84.5,88.5,84.5,88.5z"/>
<polygon class="st43" points="84.5,79.5 53.5,79.5 58.5,60.5 84.5,60.5 "/>
<path class="st43" d="M783.5,104.5h-90c-1.7,0-3-1.3-3-3v-49c0-1.7,1.3-3,3-3h90c1.7,0,3,1.3,3,3v49
	C786.5,103.2,785.2,104.5,783.5,104.5z"/>
<path class="st42" d="M47,61.4l-6.1-0.1c-5.9,1-8.4,6-8.4,6l-4.2,31.1c0,0-2.5,9-9.3,0c0,0,3.7-23.1,4.5-31.1s9-14.1,9-14.1L48.6,52
	"/>
<g id="XMLID_61_">
	<g>
		<ellipse class="st23" cx="149.2" cy="204.1" rx="23.8" ry="22.9"/>
	</g>
	<g>
		<ellipse class="st10" cx="149.2" cy="204.1" rx="23.8" ry="22.9"/>
	</g>
</g>
<ellipse class="st31" cx="149.2" cy="204.1" rx="9.8" ry="9.4"/>
<g id="XMLID_62_">
	<g>
		<ellipse class="st23" cx="554.2" cy="206.1" rx="23.8" ry="22.9"/>
	</g>
	<g>
		<ellipse class="st10" cx="554.2" cy="206.1" rx="23.8" ry="22.9"/>
	</g>
</g>
<ellipse class="st31" cx="554.2" cy="206.1" rx="9.8" ry="9.4"/>
<g id="XMLID_63_">
	<g>
		<ellipse class="st23" cx="623.2" cy="206.1" rx="23.8" ry="22.9"/>
	</g>
	<g>
		<ellipse class="st10" cx="623.2" cy="206.1" rx="23.8" ry="22.9"/>
	</g>
</g>
<ellipse class="st31" cx="623.2" cy="206.1" rx="9.8" ry="9.4"/>
<path class="st44" d="M416.7,32.5l-29.2-16h-306c0,0-19,5-17,16"/>
<polyline class="st45" points="84.5,142.5 84.5,204.5 39.5,204.5 39.5,156.5 "/>
<path class="st46" d="M101.5,148.5l-0.3,67L101.5,148.5z"/>
<polyline class="st47" points="196.5,213.5 196.5,148.5 101.5,148.5 "/>
<polyline class="st47" points="196.5,148.5 292.5,148.5 297.5,148.5 297.5,215.5 "/>
<polyline class="st47" points="297.5,148.5 408.5,148.5 408.5,215.5 "/>
<polyline class="st47" points="409,148.5 473.5,148.5 473.5,215.5 "/>
<polyline class="st47" points="508,215.5 507.5,148.5 473.5,148.5 "/>
<polyline class="st46" points="713.5,213.5 713.5,148.5 672.5,148.5 672.5,215.5 "/>
<rect x="243.5" y="176.5" class="st49" width="13" height="2"/>
<rect x="483.5" y="185.5" class="st48" width="14" height="3"/>
<rect x="688.5" y="185.5" class="st48" width="8" height="3"/>
<rect x="346.5" y="175.5" class="st49" width="13" height="2"/>
<rect x="434.5" y="176.5" class="st49" width="13" height="2"/>
<rect x="68.5" y="165.5" class="st49" width="13" height="2"/>
</svg>
