<?xml version="1.0" encoding="utf-8"?>
<!-- Generator: Adobe Illustrator 22.1.0, SVG Export Plug-In . SVG Version: 6.00 Build 0)  -->
<svg version="1.1" id="Layer_1" xmlns="http://www.w3.org/2000/svg" xmlns:xlink="http://www.w3.org/1999/xlink" x="0px" y="0px"
	 viewBox="0 0 1538 447" style="enable-background:new 0 0 1538 447;" xml:space="preserve">
<style type="text/css">
	.st0{fill:#00335F;stroke:#00335F;stroke-width:2;stroke-miterlimit:10;}
	.st1{fill:#00335F;stroke:#00355F;stroke-width:3;stroke-miterlimit:10;}
	.st2{fill:#00335F;stroke:#FFFFFF;stroke-miterlimit:10;}
	.st3{opacity:0.8;fill:#00335F;stroke:#FFFFFF;stroke-miterlimit:10;}
	.st4{fill:#FFFFFF;stroke:#00355F;stroke-width:3;stroke-miterlimit:10;}
	.st5{fill:none;stroke:#1B1464;stroke-width:3;stroke-miterlimit:10;}
	.st6{fill:#00355F;stroke:#00355F;stroke-width:3;stroke-miterlimit:10;}
	.st7{fill:none;stroke:#000000;stroke-width:20;stroke-miterlimit:10;}
	.st8{fill:none;stroke:#000000;stroke-width:3;stroke-miterlimit:10;}
	.st9{fill:#FFFFFF;stroke:#1B1464;stroke-width:2;stroke-miterlimit:10;}
	.st10{fill:none;stroke:#000000;stroke-width:10;stroke-miterlimit:10;}
	.st11{fill:none;stroke:#1B1464;stroke-width:16;stroke-miterlimit:10;}
	.st12{fill:none;stroke:#00355F;stroke-width:3;stroke-miterlimit:10;}
	.st13{stroke:#000000;stroke-width:3;stroke-miterlimit:10;}
	.st14{fill:#FFFFFF;stroke:#FFFFFF;stroke-width:2;stroke-miterlimit:10;}
	.st15{fill:#00335F;stroke:#00355F;stroke-width:3;stroke-linecap:round;stroke-linejoin:round;stroke-miterlimit:10;}
	.st16{fill:none;stroke:#1B1464;stroke-width:3;stroke-linecap:round;stroke-linejoin:round;stroke-miterlimit:10;}
	.st17{fill:#FFFFFF;stroke:#1B1464;stroke-width:3;stroke-linecap:round;stroke-linejoin:round;stroke-miterlimit:10;}
	.st18{stroke:#1B1464;stroke-width:3;stroke-miterlimit:10;}
	.st19{fill:none;stroke:#1B1464;stroke-miterlimit:10;}
	.st20{fill:#00355F;stroke:#FFFFFF;stroke-miterlimit:10;}
	.st21{fill:#FFFFFF;stroke:#1B1464;stroke-miterlimit:10;}
	.st22{fill:#FFFFFF;stroke:#1B1464;stroke-width:3;stroke-miterlimit:10;}
	.st23{fill:#FFFFFF;}
	.st24{fill:#FFFFFF;stroke:#000000;stroke-width:10;stroke-miterlimit:10;}
	.st25{fill:none;stroke:#FFFFFF;stroke-miterlimit:10;}
	.st26{fill:none;stroke:#FFFFFF;stroke-width:0.75;stroke-miterlimit:10;}
	.st27{fill:#00355F;}
	.st28{fill:none;stroke:#FFFFFF;stroke-width:2;stroke-miterlimit:10;}
	.st29{fill:#FFFFFF;stroke:#00355F;stroke-width:2;stroke-miterlimit:10;}
	.st30{fill:none;stroke:#000000;stroke-width:2;stroke-miterlimit:10;}
	.st31{fill:#FFFFFF;stroke:#000000;stroke-width:5;stroke-miterlimit:10;}
	.st32{stroke:#FFFFFF;stroke-width:3;stroke-miterlimit:10;}
	.st33{fill:#FFFFFF;stroke:#FFFFFF;stroke-width:3;stroke-miterlimit:10;}
	.st34{fill:#00335F;stroke:#00335F;stroke-width:3;stroke-miterlimit:10;}
	.st35{stroke:#000000;stroke-linecap:round;stroke-linejoin:round;stroke-miterlimit:10;}
	.st36{fill:#2A2A2A;stroke:#2A2A2A;stroke-width:0.75;stroke-linecap:round;stroke-linejoin:round;stroke-miterlimit:10;}
	.st37{stroke:#000000;stroke-width:0.75;stroke-linecap:round;stroke-linejoin:round;stroke-miterlimit:10;}
	.st38{fill:#00335F;stroke:#1B1464;stroke-width:3;stroke-linecap:round;stroke-linejoin:round;stroke-miterlimit:10;}
	.st39{fill:none;stroke:#FFFFFF;stroke-width:3;stroke-linecap:round;stroke-linejoin:round;stroke-miterlimit:10;}
	.st40{fill:none;stroke:#FFFFFF;stroke-linecap:round;stroke-linejoin:round;stroke-miterlimit:10;}
	.st41{fill:none;stroke:#00355F;}
	.st42{fill:#00355F;stroke:#00355F;}
	.st43{fill:#FFFFFF;stroke:#00355F;}
	.st44{fill:#00355F;stroke:#FFFFFF;}
	.st45{fill:#00355F;stroke:#FFFFFF;stroke-width:0.5;}
	.st46{fill:none;stroke:#FFFFFF;stroke-width:0.5;}
	.st47{fill:none;stroke:#FFFFFF;stroke-width:0.5;stroke-linecap:round;stroke-linejoin:round;}
	.st48{fill:none;stroke:#FFFFFF;}
	.st49{fill:none;stroke:#FFFFFF;stroke-width:0.75;}
	.st50{fill:#00355F;stroke:#00355F;stroke-width:0.5;stroke-miterlimit:10;}
	.st51{fill:#00355F;stroke:#00355F;stroke-width:0.75;stroke-miterlimit:10;}
</style>
<polygon class="st5" points="979.1,317.5 995.3,360.5 1059.3,361.6 1108.3,362.5 1119,317.5 "/>
<polygon class="st5" points="1297.1,315.5 1321.5,358.5 1417.8,359.6 1491.5,360.5 1507.6,315.5 "/>
<polygon class="st5" points="702.1,315.5 726.5,358.5 822.8,359.6 896.5,360.5 912.6,315.5 "/>
<path class="st15" d="M53.4,364.1l-28.9,0.4l-4-24c0,0,9.7-96.5,17-91l81.5-18.4l29.2-67.4c82-47.4,149.4-60.1,149.4-60.1h56.5
	l9.1,5.5v196.8H376v62H157.3v-18.2l-7.8,0"/>
<path class="st17" d="M213.8,181.9v41.9c0,0-3.6,7.3-7.3,7.3c-3.6,0-78.4,0-78.4,0l20-49.2H213.8z"/>
<polygon class="st6" points="375.5,322 530.5,322 561.5,328.6 561.5,367.5 375.5,367.5 "/>
<g id="XMLID_22_">
	<g>
		<circle class="st23" cx="509.7" cy="371.9" r="32.9"/>
	</g>
	<g>
		<circle class="st7" cx="509.7" cy="371.9" r="32.9"/>
	</g>
</g>
<path class="st24" d="M523.2,371.9c0,7.5-5.1,13.5-12.5,13.5s-14.5-6.1-14.5-13.5s6.1-13.5,13.5-13.5S523.2,364.4,523.2,371.9z"/>
<g id="XMLID_21_">
	<g>
		<circle class="st23" cx="423.7" cy="371.9" r="32.9"/>
	</g>
	<g>
		<circle class="st7" cx="423.7" cy="371.9" r="32.9"/>
	</g>
</g>
<circle class="st24" cx="423.7" cy="371.9" r="13.5"/>
<g id="XMLID_6_">
	<g>
		<circle class="st23" cx="102.7" cy="371.9" r="32.9"/>
	</g>
	<g>
		<circle class="st7" cx="102.7" cy="371.9" r="32.9"/>
	</g>
</g>
<circle class="st24" cx="102.7" cy="371.9" r="13.5"/>
<path class="st16" d="M53.5,364c0-0.3,0,0.4,0,0.1C54,340.5,76,321.5,103,321.5c21.1,0,39.2,11.6,46.3,28"/>
<polygon class="st12" points="921,315.9 385.4,315.9 385.4,93.5 920.5,93.5 "/>
<polygon class="st12" points="1518,315.9 982.4,315.9 982.4,93.5 1517.5,93.5 "/>
<rect x="912.5" y="315.5" class="st13" width="206" height="7"/>
<g id="XMLID_24_">
	<g>
		<circle class="st23" cx="854.7" cy="371.9" r="32.9"/>
	</g>
	<g>
		<circle class="st7" cx="854.7" cy="371.9" r="32.9"/>
	</g>
</g>
<path class="st24" d="M868.2,371.9c0,7.5-5.1,13.5-12.5,13.5c-7.5,0-14.5-6.1-14.5-13.5s6.1-13.5,13.5-13.5
	C862.1,358.4,868.2,364.4,868.2,371.9z"/>
<g id="XMLID_23_">
	<g>
		<circle class="st23" cx="768.7" cy="371.9" r="32.9"/>
	</g>
	<g>
		<circle class="st7" cx="768.7" cy="371.9" r="32.9"/>
	</g>
</g>
<circle class="st24" cx="768.7" cy="371.9" r="13.5"/>
<g id="XMLID_26_">
	<g>
		<circle class="st23" cx="1450.7" cy="371.9" r="32.9"/>
	</g>
	<g>
		<circle class="st7" cx="1450.7" cy="371.9" r="32.9"/>
	</g>
</g>
<path class="st24" d="M1464.2,371.9c0,7.5-5.1,13.5-12.5,13.5c-7.5,0-14.5-6.1-14.5-13.5s6.1-13.5,13.5-13.5
	C1458.1,358.4,1464.2,364.4,1464.2,371.9z"/>
<g id="XMLID_25_">
	<g>
		<circle class="st23" cx="1364.7" cy="371.9" r="32.9"/>
	</g>
	<g>
		<circle class="st7" cx="1364.7" cy="371.9" r="32.9"/>
	</g>
</g>
<circle class="st24" cx="1364.7" cy="371.9" r="13.5"/>
<g id="XMLID_27_">
	<g>
		<circle class="st23" cx="1051.7" cy="372.9" r="32.9"/>
	</g>
	<g>
		<circle class="st7" cx="1051.7" cy="372.9" r="32.9"/>
	</g>
</g>
<path class="st24" d="M1065.2,372.9c0,7.5-5.1,13.5-12.5,13.5c-7.5,0-14.5-6.1-14.5-13.5s6.1-13.5,13.5-13.5
	C1059.1,359.4,1065.2,365.4,1065.2,372.9z"/>
<rect x="385.5" y="305.5" class="st35" width="535" height="10"/>
<rect x="982.5" y="305.5" class="st35" width="535" height="10"/>
<polyline class="st40" points="213.5,223.5 213.5,310.5 206.5,321.5 137.5,321.5 128.5,305.5 128.5,231.5 "/>
<rect x="192.5" y="265.5" class="st40" width="15" height="3"/>
<rect x="435.5" y="317.5" class="st50" width="57" height="4"/>
</svg>
