<?xml version="1.0" encoding="utf-8"?>
<!-- Generator: Adobe Illustrator 22.1.0, SVG Export Plug-In . SVG Version: 6.00 Build 0)  -->
<svg version="1.1" id="Layer_1" xmlns="http://www.w3.org/2000/svg" xmlns:xlink="http://www.w3.org/1999/xlink" x="0px" y="0px"
	 viewBox="0 0 1538 362" style="enable-background:new 0 0 1538 362;" xml:space="preserve">
<style type="text/css">
	.st0{fill:#00335F;stroke:#00335F;stroke-width:2;stroke-miterlimit:10;}
	.st1{fill:#00335F;stroke:#00355F;stroke-width:3;stroke-miterlimit:10;}
	.st2{fill:#00335F;stroke:#FFFFFF;stroke-miterlimit:10;}
	.st3{opacity:0.8;fill:#00335F;stroke:#FFFFFF;stroke-miterlimit:10;}
	.st4{fill:#FFFFFF;stroke:#00355F;stroke-width:3;stroke-miterlimit:10;}
	.st5{fill:none;stroke:#1B1464;stroke-width:3;stroke-miterlimit:10;}
	.st6{fill:#00355F;stroke:#00355F;stroke-width:3;stroke-miterlimit:10;}
	.st7{fill:none;stroke:#000000;stroke-width:20;stroke-miterlimit:10;}
	.st8{fill:none;stroke:#000000;stroke-width:3;stroke-miterlimit:10;}
	.st9{fill:#FFFFFF;stroke:#1B1464;stroke-width:2;stroke-miterlimit:10;}
	.st10{fill:none;stroke:#000000;stroke-width:10;stroke-miterlimit:10;}
	.st11{fill:none;stroke:#1B1464;stroke-width:16;stroke-miterlimit:10;}
	.st12{fill:none;stroke:#00355F;stroke-width:3;stroke-miterlimit:10;}
	.st13{stroke:#000000;stroke-width:3;stroke-miterlimit:10;}
	.st14{fill:#FFFFFF;stroke:#FFFFFF;stroke-width:2;stroke-miterlimit:10;}
	.st15{fill:#00335F;stroke:#00355F;stroke-width:3;stroke-linecap:round;stroke-linejoin:round;stroke-miterlimit:10;}
	.st16{fill:none;stroke:#1B1464;stroke-width:3;stroke-linecap:round;stroke-linejoin:round;stroke-miterlimit:10;}
	.st17{fill:#FFFFFF;stroke:#1B1464;stroke-width:3;stroke-linecap:round;stroke-linejoin:round;stroke-miterlimit:10;}
	.st18{stroke:#1B1464;stroke-width:3;stroke-miterlimit:10;}
	.st19{fill:none;stroke:#1B1464;stroke-miterlimit:10;}
	.st20{fill:#00355F;stroke:#FFFFFF;stroke-miterlimit:10;}
	.st21{fill:#FFFFFF;stroke:#1B1464;stroke-miterlimit:10;}
	.st22{fill:#FFFFFF;stroke:#1B1464;stroke-width:3;stroke-miterlimit:10;}
	.st23{fill:#FFFFFF;}
	.st24{fill:#FFFFFF;stroke:#000000;stroke-width:10;stroke-miterlimit:10;}
	.st25{fill:none;stroke:#FFFFFF;stroke-miterlimit:10;}
	.st26{fill:none;stroke:#FFFFFF;stroke-width:0.75;stroke-miterlimit:10;}
	.st27{fill:#00355F;}
	.st28{fill:none;stroke:#FFFFFF;stroke-width:2;stroke-miterlimit:10;}
	.st29{fill:#FFFFFF;stroke:#00355F;stroke-width:2;stroke-miterlimit:10;}
	.st30{fill:none;stroke:#000000;stroke-width:2;stroke-miterlimit:10;}
	.st31{fill:#FFFFFF;stroke:#000000;stroke-width:5;stroke-miterlimit:10;}
	.st32{stroke:#FFFFFF;stroke-width:3;stroke-miterlimit:10;}
	.st33{fill:#FFFFFF;stroke:#FFFFFF;stroke-width:3;stroke-miterlimit:10;}
	.st34{fill:#00335F;stroke:#00335F;stroke-width:3;stroke-miterlimit:10;}
	.st35{stroke:#000000;stroke-linecap:round;stroke-linejoin:round;stroke-miterlimit:10;}
	.st36{fill:#2A2A2A;stroke:#2A2A2A;stroke-width:0.75;stroke-linecap:round;stroke-linejoin:round;stroke-miterlimit:10;}
	.st37{stroke:#000000;stroke-width:0.75;stroke-linecap:round;stroke-linejoin:round;stroke-miterlimit:10;}
	.st38{fill:#00335F;stroke:#1B1464;stroke-width:3;stroke-linecap:round;stroke-linejoin:round;stroke-miterlimit:10;}
	.st39{fill:none;stroke:#FFFFFF;stroke-width:3;stroke-linecap:round;stroke-linejoin:round;stroke-miterlimit:10;}
	.st40{fill:none;stroke:#FFFFFF;stroke-linecap:round;stroke-linejoin:round;stroke-miterlimit:10;}
	.st41{fill:none;stroke:#00355F;}
	.st42{fill:#00355F;stroke:#00355F;}
	.st43{fill:#FFFFFF;stroke:#00355F;}
	.st44{fill:#00355F;stroke:#FFFFFF;}
	.st45{fill:#00355F;stroke:#FFFFFF;stroke-width:0.5;}
	.st46{fill:none;stroke:#FFFFFF;stroke-width:0.5;}
	.st47{fill:none;stroke:#FFFFFF;stroke-width:0.5;stroke-linecap:round;stroke-linejoin:round;}
	.st48{fill:none;stroke:#FFFFFF;}
	.st49{fill:none;stroke:#FFFFFF;stroke-width:0.75;}
	.st50{fill:#00355F;stroke:#00355F;stroke-width:0.5;stroke-miterlimit:10;}
	.st51{fill:#00355F;stroke:#00355F;stroke-width:0.75;stroke-miterlimit:10;}
</style>
<polygon class="st5" points="981.1,251.5 997.3,294.5 1061.3,295.6 1110.3,296.5 1121,251.5 "/>
<polygon class="st5" points="1299.1,249.5 1323.5,292.5 1419.8,293.6 1493.5,294.5 1509.6,249.5 "/>
<polygon class="st5" points="704.1,249.5 728.5,292.5 824.8,293.6 898.5,294.5 914.6,249.5 "/>
<path class="st15" d="M55.4,298.1l-28.9,0.4l-4-24c0,0,9.7-96.5,17-91l81.5-18.4l29.2-67.4c82-47.4,149.4-60.1,149.4-60.1h56.5
	l9.1,5.5v196.8H378v62H159.3v-18.2l-7.8,0"/>
<path class="st17" d="M215.8,115.9v41.9c0,0-3.6,7.3-7.3,7.3c-3.6,0-78.4,0-78.4,0l20-49.2H215.8z"/>
<polygon class="st6" points="377.5,256 532.5,256 563.5,262.6 563.5,301.5 377.5,301.5 "/>
<g id="XMLID_35_">
	<g>
		<circle class="st23" cx="511.7" cy="305.9" r="32.9"/>
	</g>
	<g>
		<circle class="st7" cx="511.7" cy="305.9" r="32.9"/>
	</g>
</g>
<path class="st24" d="M525.2,305.9c0,7.5-5.1,13.5-12.5,13.5c-7.5,0-14.5-6.1-14.5-13.5s6.1-13.5,13.5-13.5S525.2,298.4,525.2,305.9
	z"/>
<g id="XMLID_34_">
	<g>
		<circle class="st23" cx="425.7" cy="305.9" r="32.9"/>
	</g>
	<g>
		<circle class="st7" cx="425.7" cy="305.9" r="32.9"/>
	</g>
</g>
<circle class="st24" cx="425.7" cy="305.9" r="13.5"/>
<g id="XMLID_33_">
	<g>
		<circle class="st23" cx="104.7" cy="305.9" r="32.9"/>
	</g>
	<g>
		<circle class="st7" cx="104.7" cy="305.9" r="32.9"/>
	</g>
</g>
<circle class="st24" cx="104.7" cy="305.9" r="13.5"/>
<path class="st16" d="M55.5,298c0-0.3,0,0.4,0,0.1C56,274.5,78,255.5,105,255.5c21.1,0,39.2,11.6,46.3,28"/>
<polygon class="st12" points="923,249.9 387.4,249.9 387.4,27.5 922.5,27.5 "/>
<polygon class="st8" points="1520,249.9 984.4,249.9 984.4,27.5 1519.5,27.5 "/>
<rect x="914.5" y="251.5" class="st13" width="206" height="5"/>
<g id="XMLID_32_">
	<g>
		<circle class="st23" cx="856.7" cy="305.9" r="32.9"/>
	</g>
	<g>
		<circle class="st7" cx="856.7" cy="305.9" r="32.9"/>
	</g>
</g>
<path class="st24" d="M870.2,305.9c0,7.5-5.1,13.5-12.5,13.5c-7.5,0-14.5-6.1-14.5-13.5s6.1-13.5,13.5-13.5
	C864.1,292.4,870.2,298.4,870.2,305.9z"/>
<g id="XMLID_31_">
	<g>
		<circle class="st23" cx="770.7" cy="305.9" r="32.9"/>
	</g>
	<g>
		<circle class="st7" cx="770.7" cy="305.9" r="32.9"/>
	</g>
</g>
<circle class="st24" cx="770.7" cy="305.9" r="13.5"/>
<g id="XMLID_30_">
	<g>
		<circle class="st23" cx="1452.7" cy="305.9" r="32.9"/>
	</g>
	<g>
		<circle class="st7" cx="1452.7" cy="305.9" r="32.9"/>
	</g>
</g>
<path class="st24" d="M1466.2,305.9c0,7.5-5.1,13.5-12.5,13.5c-7.5,0-14.5-6.1-14.5-13.5s6.1-13.5,13.5-13.5
	C1460.1,292.4,1466.2,298.4,1466.2,305.9z"/>
<g id="XMLID_29_">
	<g>
		<circle class="st23" cx="1366.7" cy="305.9" r="32.9"/>
	</g>
	<g>
		<circle class="st7" cx="1366.7" cy="305.9" r="32.9"/>
	</g>
</g>
<circle class="st24" cx="1366.7" cy="305.9" r="13.5"/>
<g id="XMLID_28_">
	<g>
		<circle class="st23" cx="1053.7" cy="306.9" r="32.9"/>
	</g>
	<g>
		<circle class="st7" cx="1053.7" cy="306.9" r="32.9"/>
	</g>
</g>
<path class="st24" d="M1067.2,306.9c0,7.5-5.1,13.5-12.5,13.5c-7.5,0-14.5-6.1-14.5-13.5s6.1-13.5,13.5-13.5
	C1061.1,293.4,1067.2,299.4,1067.2,306.9z"/>
<rect x="386.5" y="239.5" class="st36" width="535" height="10"/>
<rect x="985.5" y="239.5" class="st37" width="535" height="10"/>
<polyline class="st40" points="216.5,158.5 216.5,245.5 209.5,256.5 140.5,256.5 131.5,240.5 131.5,166.5 "/>
<rect x="195.5" y="200.5" class="st40" width="15" height="3"/>
<rect x="437.5" y="251.5" class="st51" width="57" height="4"/>
</svg>
