<?xml version="1.0" encoding="utf-8"?>
<!-- Generator: Adobe Illustrator 22.1.0, SVG Export Plug-In . SVG Version: 6.00 Build 0)  -->
<svg version="1.1" id="Layer_1" xmlns="http://www.w3.org/2000/svg" xmlns:xlink="http://www.w3.org/1999/xlink" x="0px" y="0px"
	 viewBox="0 0 1838 303" style="enable-background:new 0 0 1838 303;" xml:space="preserve">
<style type="text/css">
	.st0{fill:#00335F;stroke:#00335F;stroke-width:2;stroke-miterlimit:10;}
	.st1{fill:#00335F;stroke:#00355F;stroke-width:3;stroke-miterlimit:10;}
	.st2{fill:#00335F;stroke:#FFFFFF;stroke-miterlimit:10;}
	.st3{opacity:0.8;fill:#00335F;stroke:#FFFFFF;stroke-miterlimit:10;}
	.st4{fill:#FFFFFF;stroke:#00355F;stroke-width:3;stroke-miterlimit:10;}
	.st5{fill:none;stroke:#1B1464;stroke-width:3;stroke-miterlimit:10;}
	.st6{fill:#00355F;stroke:#00355F;stroke-width:3;stroke-miterlimit:10;}
	.st7{fill:none;stroke:#000000;stroke-width:20;stroke-miterlimit:10;}
	.st8{fill:none;stroke:#000000;stroke-width:3;stroke-miterlimit:10;}
	.st9{fill:#FFFFFF;stroke:#1B1464;stroke-width:2;stroke-miterlimit:10;}
	.st10{fill:none;stroke:#000000;stroke-width:10;stroke-miterlimit:10;}
	.st11{fill:none;stroke:#1B1464;stroke-width:16;stroke-miterlimit:10;}
	.st12{fill:none;stroke:#00355F;stroke-width:3;stroke-miterlimit:10;}
	.st13{stroke:#000000;stroke-width:3;stroke-miterlimit:10;}
	.st14{fill:#FFFFFF;stroke:#FFFFFF;stroke-width:2;stroke-miterlimit:10;}
	.st15{fill:#00335F;stroke:#00355F;stroke-width:3;stroke-linecap:round;stroke-linejoin:round;stroke-miterlimit:10;}
	.st16{fill:none;stroke:#1B1464;stroke-width:3;stroke-linecap:round;stroke-linejoin:round;stroke-miterlimit:10;}
	.st17{fill:#FFFFFF;stroke:#1B1464;stroke-width:3;stroke-linecap:round;stroke-linejoin:round;stroke-miterlimit:10;}
	.st18{stroke:#1B1464;stroke-width:3;stroke-miterlimit:10;}
	.st19{fill:none;stroke:#1B1464;stroke-miterlimit:10;}
	.st20{fill:#00355F;stroke:#FFFFFF;stroke-miterlimit:10;}
	.st21{fill:#FFFFFF;stroke:#1B1464;stroke-miterlimit:10;}
	.st22{fill:#FFFFFF;stroke:#1B1464;stroke-width:3;stroke-miterlimit:10;}
	.st23{fill:#FFFFFF;}
	.st24{fill:#FFFFFF;stroke:#000000;stroke-width:10;stroke-miterlimit:10;}
	.st25{fill:none;stroke:#FFFFFF;stroke-miterlimit:10;}
	.st26{fill:none;stroke:#FFFFFF;stroke-width:0.75;stroke-miterlimit:10;}
	.st27{fill:#00355F;}
	.st28{fill:none;stroke:#FFFFFF;stroke-width:2;stroke-miterlimit:10;}
	.st29{fill:#FFFFFF;stroke:#00355F;stroke-width:2;stroke-miterlimit:10;}
	.st30{fill:none;stroke:#000000;stroke-width:2;stroke-miterlimit:10;}
	.st31{fill:#FFFFFF;stroke:#000000;stroke-width:5;stroke-miterlimit:10;}
	.st32{stroke:#FFFFFF;stroke-width:3;stroke-miterlimit:10;}
	.st33{fill:#FFFFFF;stroke:#FFFFFF;stroke-width:3;stroke-miterlimit:10;}
	.st34{fill:#00335F;stroke:#00335F;stroke-width:3;stroke-miterlimit:10;}
	.st35{stroke:#000000;stroke-linecap:round;stroke-linejoin:round;stroke-miterlimit:10;}
	.st36{fill:#2A2A2A;stroke:#2A2A2A;stroke-width:0.75;stroke-linecap:round;stroke-linejoin:round;stroke-miterlimit:10;}
	.st37{stroke:#000000;stroke-width:0.75;stroke-linecap:round;stroke-linejoin:round;stroke-miterlimit:10;}
	.st38{fill:#00335F;stroke:#1B1464;stroke-width:3;stroke-linecap:round;stroke-linejoin:round;stroke-miterlimit:10;}
	.st39{fill:none;stroke:#FFFFFF;stroke-width:3;stroke-linecap:round;stroke-linejoin:round;stroke-miterlimit:10;}
	.st40{fill:none;stroke:#FFFFFF;stroke-linecap:round;stroke-linejoin:round;stroke-miterlimit:10;}
	.st41{fill:none;stroke:#00355F;}
	.st42{fill:#00355F;stroke:#00355F;}
	.st43{fill:#FFFFFF;stroke:#00355F;}
	.st44{fill:#00355F;stroke:#FFFFFF;}
	.st45{fill:#00355F;stroke:#FFFFFF;stroke-width:0.5;}
	.st46{fill:none;stroke:#FFFFFF;stroke-width:0.5;}
	.st47{fill:none;stroke:#FFFFFF;stroke-width:0.5;stroke-linecap:round;stroke-linejoin:round;}
	.st48{fill:none;stroke:#FFFFFF;}
	.st49{fill:none;stroke:#FFFFFF;stroke-width:0.75;}
	.st50{fill:#00355F;stroke:#00355F;stroke-width:0.5;stroke-miterlimit:10;}
	.st51{fill:#00355F;stroke:#00355F;stroke-width:0.75;stroke-miterlimit:10;}
</style>
<rect x="1398" y="221" class="st0" width="242" height="19"/>
<path class="st22" d="M306.7,135.4L306.7,135.4c2-0.8,4.4,0.1,5.2,2.2l26.7,64.7c0.8,2-0.1,4.4-2.2,5.2v0c-2,0.8-4.4-0.1-5.2-2.2
	l-26.7-64.7C303.6,138.6,304.6,136.3,306.7,135.4z"/>
<polyline class="st1" points="137.9,48.5 282.1,48 297.3,60.1 297.3,211.8 291.5,212.3 291,228.9 366,228.9 365.6,242 208.4,242 
	208.4,233 149.2,233 149.2,239.7 149.2,242 131.7,242 43.2,242 10,242 10,214.9 23.5,214.9 23.5,123.4 36,123.4 43.2,127.4 
	112.4,117.4 127.6,66.1 127.6,58.1 137.9,48.5 245.2,48.5 "/>
<polygon class="st2" points="165.5,116.5 158.5,120.5 158.5,177.5 171.5,192.5 239.5,192.5 239.5,116.5 "/>
<rect x="214.5" y="138.5" class="st2" width="21" height="5"/>
<polygon class="st21" points="299.5,72 299.5,16 308.5,20.6 308.5,72 308.5,224.9 299.5,229.5 "/>
<rect x="149.5" y="233.5" class="st19" width="79" height="8"/>
<polygon class="st33" points="172.5,66.5 230.5,66.5 238.5,75.5 238.5,116.5 172.5,116.5 164.5,116.5 164.5,66.5 "/>
<rect x="331.5" y="207.5" class="st34" width="291" height="19"/>
<g id="XMLID_53_">
	<g>
		<circle class="st23" cx="90.7" cy="253.9" r="32.9"/>
	</g>
	<g>
		<circle class="st7" cx="90.7" cy="253.9" r="32.9"/>
	</g>
</g>
<circle class="st24" cx="90.7" cy="253.9" r="13.5"/>
<path class="st12" d="M45,243c5.3-20.4,23.9-35.5,46-35.5c22.1,0,40.7,15.1,46,35.5"/>
<path class="st6" d="M353.5,279.5h-65c-6.6,0-12-5.4-12-12v-10c0-6.6,5.4-12,12-12h65c6.6,0,12,5.4,12,12v10
	C365.5,274.1,360.1,279.5,353.5,279.5z"/>
<g id="XMLID_55_">
	<g>
		<circle class="st23" cx="482.7" cy="253.9" r="32.9"/>
	</g>
	<g>
		<circle class="st7" cx="482.7" cy="253.9" r="32.9"/>
	</g>
</g>
<circle class="st24" cx="482.7" cy="253.9" r="13.5"/>
<g id="XMLID_54_">
	<g>
		<circle class="st23" cx="578.7" cy="253.9" r="32.9"/>
	</g>
	<g>
		<circle class="st7" cx="578.7" cy="253.9" r="32.9"/>
	</g>
</g>
<circle class="st24" cx="578.7" cy="253.9" r="13.5"/>
<path class="st0" d="M539,201h105c0,0,33,2,37,28h205c0,0-35-29-59-28H708c0,0-6-21-26-22s-143,0-143,0V201z"/>
<path class="st0" d="M755,193h198c0,0,23-2,24,18s0,49,0,49h343l109-49l-40,2l-69,26h-278c0,0-20-50-42-61s-41-13-41-13H755V193z"/>
<g id="XMLID_58_">
	<g>
		<circle class="st23" cx="1507.7" cy="253.9" r="32.9"/>
	</g>
	<g>
		<circle class="st7" cx="1507.7" cy="253.9" r="32.9"/>
	</g>
</g>
<path class="st24" d="M1521.2,253.9c0,7.5-5.1,13.5-12.5,13.5c-7.5,0-14.5-6.1-14.5-13.5s6.1-13.5,13.5-13.5
	C1515.1,240.4,1521.2,246.4,1521.2,253.9z"/>
<g id="XMLID_57_">
	<g>
		<circle class="st23" cx="1417.7" cy="253.9" r="32.9"/>
	</g>
	<g>
		<circle class="st7" cx="1417.7" cy="253.9" r="32.9"/>
	</g>
</g>
<circle class="st24" cx="1417.7" cy="253.9" r="13.5"/>
<g id="XMLID_56_">
	<g>
		<circle class="st23" cx="1597.7" cy="252.9" r="32.9"/>
	</g>
	<g>
		<circle class="st7" cx="1597.7" cy="252.9" r="32.9"/>
	</g>
</g>
<path class="st24" d="M1611.2,252.9c0,7.5-5.1,13.5-12.5,13.5c-7.5,0-14.5-6.1-14.5-13.5s6.1-13.5,13.5-13.5
	C1605.1,239.4,1611.2,245.4,1611.2,252.9z"/>
<polygon class="st34" points="1638,221 1638,243 1777,243 1744,221 "/>
<g id="XMLID_59_">
	<g>
		<circle class="st23" cx="1786.7" cy="252.9" r="32.9"/>
	</g>
	<g>
		<circle class="st7" cx="1786.7" cy="252.9" r="32.9"/>
	</g>
</g>
<path class="st24" d="M1800.2,252.9c0,7.5-5.1,13.5-12.5,13.5c-7.5,0-14.5-6.1-14.5-13.5s6.1-13.5,13.5-13.5
	C1794.1,239.4,1800.2,245.4,1800.2,252.9z"/>
<rect x="764" y="193" width="33" height="8"/>
<rect x="556" y="202" width="23" height="4"/>
<g id="XMLID_60_">
	<g>
		<circle class="st23" cx="855.7" cy="253.9" r="32.9"/>
	</g>
	<g>
		<circle class="st7" cx="855.7" cy="253.9" r="32.9"/>
	</g>
</g>
<circle class="st24" cx="855.7" cy="253.9" r="13.5"/>
</svg>
