<svg xmlns="http://www.w3.org/2000/svg" xmlns:xlink="http://www.w3.org/1999/xlink" viewBox="0 0 54 54"><defs><style>.cls-1,.cls-4{fill:none;}.cls-2{clip-path:url(#clip-path);}.cls-3{fill:#ffdf1c;}.cls-4{stroke:#231f20;stroke-width:0.1px;}.cls-5{clip-path:url(#clip-path-2);}.cls-6{fill:#231f20;}</style><clipPath id="clip-path" transform="translate(0 -0.54)"><rect class="cls-1" x="0.81" y="0.54" width="53.19" height="53.46"/></clipPath><clipPath id="clip-path-2" transform="translate(0 -0.54)"><rect class="cls-1" x="0.81" width="54" height="54"/></clipPath></defs><title>Asset 16</title><g id="Layer_2" data-name="Layer 2"><g id="Layer_1-2" data-name="Layer 1"><g class="cls-2"><path class="cls-3" d="M25.22,53.75a2.51,2.51,0,0,0,3.55,0L53.21,29.32a2.52,2.52,0,0,0,0-3.56L28.78,1.33a2.52,2.52,0,0,0-3.55,0L.79,25.76a2.51,2.51,0,0,0,0,3.56Z" transform="translate(0 -0.54)"/><path class="cls-4" d="M25.22,53.75a2.51,2.51,0,0,0,3.55,0L53.21,29.32a2.52,2.52,0,0,0,0-3.56L28.78,1.33a2.52,2.52,0,0,0-3.55,0L.79,25.76a2.51,2.51,0,0,0,0,3.56Z" transform="translate(0 -0.54)"/></g><g class="cls-5"><path class="cls-6" d="M52.74,26.23,28.31,1.8a1.85,1.85,0,0,0-2.62,0L1.26,26.23a1.85,1.85,0,0,0,0,2.62L25.69,53.28a1.85,1.85,0,0,0,2.62,0L52.74,28.85a1.85,1.85,0,0,0,0-2.62M27.61,52.59a.86.86,0,0,1-1.22,0L2,28.15a.86.86,0,0,1,0-1.22L26.39,2.49a.86.86,0,0,1,1.22,0L52,26.93a.86.86,0,0,1,0,1.22Z" transform="translate(0 -0.54)"/><path class="cls-6" d="M41.46,29.81l-1.88-.48a12.76,12.76,0,0,1-10.06,11l-.73-3.51A9.19,9.19,0,0,0,36,29.06l-1.92.2c-.63.07-1.05-.51-.61-1l4.8-5.64,3.92,6.29c.36.58-.14,1.09-.75.93M22,33.35l-.78,1.77A9.19,9.19,0,0,1,18.07,25l-3.41-1.09a12.75,12.75,0,0,0,4.56,14.15l-1.35,1.4c-.44.46-.24,1.14.44,1.11l7.4-.31-2.54-7c-.24-.64-.94-.57-1.2,0M21.71,16l-.54-1.87C21,13.55,20.3,13.38,20,14l-3.42,6.57,7.3,1.27c.68.12,1-.54.58-1L23.3,19.23A9.19,9.19,0,0,1,33.6,21.54l2.65-2.41A12.76,12.76,0,0,0,21.71,16" transform="translate(0 -0.54)"/></g></g></g></svg>