<?xml version="1.0" encoding="utf-8"?>
<!-- Generator: Adobe Illustrator 22.1.0, SVG Export Plug-In . SVG Version: 6.00 Build 0)  -->
<svg version="1.1" id="Layer_1" xmlns="http://www.w3.org/2000/svg" xmlns:xlink="http://www.w3.org/1999/xlink" x="0px" y="0px"
	 viewBox="0 0 1538 368" style="enable-background:new 0 0 1538 368;" xml:space="preserve">
<style type="text/css">
	.st0{fill:#00335F;stroke:#00335F;stroke-width:2;stroke-miterlimit:10;}
	.st1{fill:#00335F;stroke:#00355F;stroke-width:3;stroke-miterlimit:10;}
	.st2{fill:#00335F;stroke:#FFFFFF;stroke-miterlimit:10;}
	.st3{opacity:0.8;fill:#00335F;stroke:#FFFFFF;stroke-miterlimit:10;}
	.st4{fill:#FFFFFF;stroke:#00355F;stroke-width:3;stroke-miterlimit:10;}
	.st5{fill:none;stroke:#1B1464;stroke-width:3;stroke-miterlimit:10;}
	.st6{fill:#00355F;stroke:#00355F;stroke-width:3;stroke-miterlimit:10;}
	.st7{fill:none;stroke:#000000;stroke-width:20;stroke-miterlimit:10;}
	.st8{fill:none;stroke:#000000;stroke-width:3;stroke-miterlimit:10;}
	.st9{fill:#FFFFFF;stroke:#1B1464;stroke-width:2;stroke-miterlimit:10;}
	.st10{fill:none;stroke:#000000;stroke-width:10;stroke-miterlimit:10;}
	.st11{fill:none;stroke:#1B1464;stroke-width:16;stroke-miterlimit:10;}
	.st12{fill:none;stroke:#00355F;stroke-width:3;stroke-miterlimit:10;}
	.st13{stroke:#000000;stroke-width:3;stroke-miterlimit:10;}
	.st14{fill:#FFFFFF;stroke:#FFFFFF;stroke-width:2;stroke-miterlimit:10;}
	.st15{fill:#00335F;stroke:#00355F;stroke-width:3;stroke-linecap:round;stroke-linejoin:round;stroke-miterlimit:10;}
	.st16{fill:none;stroke:#1B1464;stroke-width:3;stroke-linecap:round;stroke-linejoin:round;stroke-miterlimit:10;}
	.st17{fill:#FFFFFF;stroke:#1B1464;stroke-width:3;stroke-linecap:round;stroke-linejoin:round;stroke-miterlimit:10;}
	.st18{stroke:#1B1464;stroke-width:3;stroke-miterlimit:10;}
	.st19{fill:none;stroke:#1B1464;stroke-miterlimit:10;}
	.st20{fill:#00355F;stroke:#FFFFFF;stroke-miterlimit:10;}
	.st21{fill:#FFFFFF;stroke:#1B1464;stroke-miterlimit:10;}
	.st22{fill:#FFFFFF;stroke:#1B1464;stroke-width:3;stroke-miterlimit:10;}
	.st23{fill:#FFFFFF;}
	.st24{fill:#FFFFFF;stroke:#000000;stroke-width:10;stroke-miterlimit:10;}
	.st25{fill:none;stroke:#FFFFFF;stroke-miterlimit:10;}
	.st26{fill:none;stroke:#FFFFFF;stroke-width:0.75;stroke-miterlimit:10;}
	.st27{fill:#00355F;}
	.st28{fill:none;stroke:#FFFFFF;stroke-width:2;stroke-miterlimit:10;}
	.st29{fill:#FFFFFF;stroke:#00355F;stroke-width:2;stroke-miterlimit:10;}
	.st30{fill:none;stroke:#000000;stroke-width:2;stroke-miterlimit:10;}
	.st31{fill:#FFFFFF;stroke:#000000;stroke-width:5;stroke-miterlimit:10;}
	.st32{stroke:#FFFFFF;stroke-width:3;stroke-miterlimit:10;}
	.st33{fill:#FFFFFF;stroke:#FFFFFF;stroke-width:3;stroke-miterlimit:10;}
	.st34{fill:#00335F;stroke:#00335F;stroke-width:3;stroke-miterlimit:10;}
	.st35{stroke:#000000;stroke-linecap:round;stroke-linejoin:round;stroke-miterlimit:10;}
	.st36{fill:#2A2A2A;stroke:#2A2A2A;stroke-width:0.75;stroke-linecap:round;stroke-linejoin:round;stroke-miterlimit:10;}
	.st37{stroke:#000000;stroke-width:0.75;stroke-linecap:round;stroke-linejoin:round;stroke-miterlimit:10;}
	.st38{fill:#00335F;stroke:#1B1464;stroke-width:3;stroke-linecap:round;stroke-linejoin:round;stroke-miterlimit:10;}
	.st39{fill:none;stroke:#FFFFFF;stroke-width:3;stroke-linecap:round;stroke-linejoin:round;stroke-miterlimit:10;}
	.st40{fill:none;stroke:#FFFFFF;stroke-linecap:round;stroke-linejoin:round;stroke-miterlimit:10;}
	.st41{fill:none;stroke:#00355F;}
	.st42{fill:#00355F;stroke:#00355F;}
	.st43{fill:#FFFFFF;stroke:#00355F;}
	.st44{fill:#00355F;stroke:#FFFFFF;}
	.st45{fill:#00355F;stroke:#FFFFFF;stroke-width:0.5;}
	.st46{fill:none;stroke:#FFFFFF;stroke-width:0.5;}
	.st47{fill:none;stroke:#FFFFFF;stroke-width:0.5;stroke-linecap:round;stroke-linejoin:round;}
	.st48{fill:none;stroke:#FFFFFF;}
	.st49{fill:none;stroke:#FFFFFF;stroke-width:0.75;}
	.st50{fill:#00355F;stroke:#00355F;stroke-width:0.5;stroke-miterlimit:10;}
	.st51{fill:#00355F;stroke:#00355F;stroke-width:0.75;stroke-miterlimit:10;}
</style>
<polygon class="st5" points="1300.1,257.5 1324.5,300.5 1420.8,301.6 1494.5,302.5 1510.6,257.5 "/>
<polygon class="st5" points="809,256.5 829.7,299.5 911.6,300.6 974.3,301.5 988,256.5 "/>
<path class="st15" d="M56.4,306.1l-28.9,0.4l-4-24c0,0,9.7-96.5,17-91l81.5-18.4l29.2-67.4c82-47.4,149.4-60.1,149.4-60.1h56.5
	l9.1,5.5v196.8H379v62H160.3v-18.2l-7.8,0"/>
<path class="st17" d="M216.8,123.9v41.9c0,0-3.6,7.3-7.3,7.3c-3.6,0-78.4,0-78.4,0l20-49.2H216.8z"/>
<polygon class="st6" points="378.5,264 533.5,264 564.5,270.6 564.5,309.5 378.5,309.5 "/>
<g id="XMLID_43_">
	<g>
		<circle class="st23" cx="512.7" cy="313.9" r="32.9"/>
	</g>
	<g>
		<circle class="st7" cx="512.7" cy="313.9" r="32.9"/>
	</g>
</g>
<path class="st24" d="M526.2,313.9c0,7.5-5.1,13.5-12.5,13.5c-7.5,0-14.5-6.1-14.5-13.5s6.1-13.5,13.5-13.5
	C520.1,300.4,526.2,306.4,526.2,313.9z"/>
<g id="XMLID_42_">
	<g>
		<circle class="st23" cx="426.7" cy="313.9" r="32.9"/>
	</g>
	<g>
		<circle class="st7" cx="426.7" cy="313.9" r="32.9"/>
	</g>
</g>
<circle class="st24" cx="426.7" cy="313.9" r="13.5"/>
<g id="XMLID_41_">
	<g>
		<circle class="st23" cx="105.7" cy="313.9" r="32.9"/>
	</g>
	<g>
		<circle class="st7" cx="105.7" cy="313.9" r="32.9"/>
	</g>
</g>
<circle class="st24" cx="105.7" cy="313.9" r="13.5"/>
<path class="st16" d="M56.5,306c0-0.3,0,0.4,0,0.1C57,282.5,79,263.5,106,263.5c21.1,0,39.2,11.6,46.3,28"/>
<polygon class="st8" points="924,257.9 388.4,257.9 388.4,35.5 923.5,35.5 "/>
<polygon class="st8" points="1521,257.9 985.4,257.9 985.4,35.5 1520.5,35.5 "/>
<rect x="812.5" y="256.5" class="st18" width="267" height="11"/>
<g id="XMLID_40_">
	<g>
		<circle class="st23" cx="954.7" cy="313.9" r="32.9"/>
	</g>
	<g>
		<circle class="st7" cx="954.7" cy="313.9" r="32.9"/>
	</g>
</g>
<path class="st24" d="M968.2,313.9c0,7.5-5.1,13.5-12.5,13.5c-7.5,0-14.5-6.1-14.5-13.5s6.1-13.5,13.5-13.5
	C962.1,300.4,968.2,306.4,968.2,313.9z"/>
<g id="XMLID_39_">
	<g>
		<circle class="st23" cx="864.7" cy="313.9" r="32.9"/>
	</g>
	<g>
		<circle class="st7" cx="864.7" cy="313.9" r="32.9"/>
	</g>
</g>
<circle class="st24" cx="864.7" cy="313.9" r="13.5"/>
<g id="XMLID_38_">
	<g>
		<circle class="st23" cx="1453.7" cy="313.9" r="32.9"/>
	</g>
	<g>
		<circle class="st7" cx="1453.7" cy="313.9" r="32.9"/>
	</g>
</g>
<path class="st24" d="M1467.2,313.9c0,7.5-5.1,13.5-12.5,13.5c-7.5,0-14.5-6.1-14.5-13.5s6.1-13.5,13.5-13.5
	C1461.1,300.4,1467.2,306.4,1467.2,313.9z"/>
<g id="XMLID_37_">
	<g>
		<circle class="st23" cx="1367.7" cy="313.9" r="32.9"/>
	</g>
	<g>
		<circle class="st7" cx="1367.7" cy="313.9" r="32.9"/>
	</g>
</g>
<circle class="st24" cx="1367.7" cy="313.9" r="13.5"/>
<g id="XMLID_36_">
	<g>
		<circle class="st23" cx="1045.7" cy="313.9" r="32.9"/>
	</g>
	<g>
		<circle class="st7" cx="1045.7" cy="313.9" r="32.9"/>
	</g>
</g>
<path class="st24" d="M1059.2,313.9c0,7.5-5.1,13.5-12.5,13.5c-7.5,0-14.5-6.1-14.5-13.5s6.1-13.5,13.5-13.5
	C1053.1,300.4,1059.2,306.4,1059.2,313.9z"/>
<rect x="388.5" y="245.5" class="st35" width="535" height="10"/>
<rect x="985.5" y="245.5" class="st35" width="535" height="10"/>
<polyline class="st40" points="217.5,166.5 217.5,253.5 210.5,264.5 141.5,264.5 132.5,248.5 132.5,174.5 "/>
<rect x="196.5" y="208.5" class="st40" width="15" height="3"/>
</svg>
