<svg id="d50ff157-c671-4826-96e4-2374e82c6fd9" data-name="Ñëîé 1" xmlns="http://www.w3.org/2000/svg" viewBox="0 0 1200 1200">
  <title>no_mobile_icon</title>
  <g>
    <g>
      <path d="M426.94,985.86a23,23,0,0,1-17.07-7.63L275.55,832a26.23,26.23,0,0,1-1.16-33.78l15.41-19.42c15.45-19.47,21.63-45.89,16.53-70.67A242.57,242.57,0,0,1,303.4,626c.36-7.37,2.68-45.74,12.85-72.66,4.64-12.27,10.85-27.72,16.86-42.65,7.38-18.33,15-37.28,19.23-49.19,12.53-35.4,20.14-63.9,22.6-84.72.95-8.09,1.2-14.6,1.42-20.34.58-15,1-26.9,14.53-39.4a24.36,24.36,0,0,1,16.78-6.71c19.74,0,38.35,23.17,44.71,38.84,7.69,18.94,10.42,32,10.42,67.44S451.4,534.75,448.72,547l-.06.31a1,1,0,0,0,0,.3,1.24,1.24,0,0,0,.6.27s.08-.06.2-.19c80-84.64,266.94-282.41,275.46-290.67,14.11-13.69,27.76-20.35,41.72-20.35,9.93,0,19.43,3.5,28.24,10.42s14.09,16.2,15.15,26.81c2,19.5-10.39,38.93-21.08,51.8-8.25,9.92-26.52,30.08-34,38.29a.44.44,0,0,0-.11.32l.83,387.44a25.68,25.68,0,0,1-10.15,20.7l-106.07,78.6c-4.15,4.08-26.13,25.05-54.85,39.82l-6.86,3.53c-29.28,15.12-65.71,33.93-85.22,35.52a.37.37,0,0,0-.2.11l-49,49A23,23,0,0,1,426.94,985.86Z" fill="#fff"/>
      <path d="M283.33,806.14l15.41-19.43a99.09,99.09,0,0,0,19-81.25,230.81,230.81,0,0,1-2.79-77.7,9.81,9.81,0,0,0,.1-1.09c.24-4.94,2.38-43.22,12-68.76,10.33-27.36,28.42-70.21,36.17-92.09s19.81-58.35,23.26-87.53c1.74-14.76.4-35.45,9.16-48.44,15.14-22.47,42.06,7.82,48.7,24.18,6.89,17,9.47,27.91,9.47,62.56s-13.93,115.79-16.52,127.64c0,.12,0,.24-.07.36-2.69,12.51,11.83,20.93,20.41,11.86,70.17-74.27,266.61-282.07,275.09-290.3,10.33-10,31.87-27.35,55.12-9.12s2.59,48.08-7.75,60.51c-8.07,9.7-26.11,29.61-33.64,37.88a13.29,13.29,0,0,0-3.39,8.93L744,751.79a13,13,0,0,1-5.17,10.54l-106.07,78.6a12.49,12.49,0,0,0-1.3,1.11c-3.7,3.65-24.65,23.67-51.95,37.71-28,14.42-69.1,36.32-87.88,37.85a11.8,11.8,0,0,0-7.32,3.45l-49,49a11.66,11.66,0,0,1-17-.39L283.92,823.34A13.39,13.39,0,0,1,283.33,806.14Z" fill="#1d1d1b"/>
    </g>
    <g>
      <rect x="322.45" y="405.15" width="565.41" height="305.69" rx="34.83" ry="34.83" transform="translate(1163.15 -47.16) rotate(90)" fill="#fff"/>
      <rect x="463.47" y="286.46" width="283.37" height="543.09" rx="24.83" ry="24.83" fill="#1d1d1b"/>
      <rect x="481.88" y="337.62" width="247.16" height="440.75" fill="#fff"/>
      <rect x="543.02" y="302.88" width="124.88" height="6.84" fill="#f6f6f6"/>
      <rect x="565.1" y="791.58" width="80.11" height="18.24" rx="1.65" ry="1.65" fill="#f6f6f6"/>
    </g>
    <g>
      <path d="M737.27,521.72c-.95,0-1.91,0-2.85-.1-23.59-1.76-40.55-21.47-39.45-45.87.88-19.69,19.09-34.35,32.37-45.06,1.4-1.12,2.72-2.19,3.94-3.2,10.8-8.92,27.26-20.78,45.56-20.78a39.57,39.57,0,0,1,11.51,1.68,45.72,45.72,0,0,1,20.41,13.67c12.86,14.62,15.9,33.78,7.54,47.69-5.94,9.9-16.48,20.49-31.32,31.5-18.33,13.58-34.38,20.47-47.71,20.47Z" fill="#fff"/>
      <path d="M800.07,429.71A33.91,33.91,0,0,0,785,419.47c-16.61-5-34.28,7-46.33,16.94-11.38,9.42-31.4,23.59-32.13,39.86-.79,17.56,10.84,32.47,28.75,33.81,13,1,28.94-7.85,42.81-18.13,12.13-9,22.68-18.81,28.29-28.16C812.77,453.14,808.5,439.28,800.07,429.71Z" fill="#1d1d1b"/>
    </g>
    <g>
      <path d="M737.27,624.05c-1,0-1.91,0-2.84-.1-23.6-1.76-40.56-21.48-39.46-45.87.88-19.69,19.08-34.35,32.37-45.06,1.4-1.12,2.72-2.19,3.94-3.2,10.8-8.93,27.26-20.79,45.56-20.79a39.58,39.58,0,0,1,11.51,1.69,45.67,45.67,0,0,1,20.41,13.67c12.87,14.61,15.9,33.77,7.54,47.69-5.94,9.89-16.48,20.49-31.32,31.49-18.33,13.59-34.38,20.48-47.71,20.48Z" fill="#fff"/>
      <path d="M800.07,532A33.93,33.93,0,0,0,785,521.79c-16.61-5-34.28,7-46.33,17-11.38,9.41-31.4,23.59-32.13,39.86-.79,17.56,10.84,32.47,28.75,33.8,13,1,28.94-7.84,42.81-18.12,12.13-9,22.68-18.82,28.29-28.16C812.77,555.47,808.5,541.61,800.07,532Z" fill="#1d1d1b"/>
    </g>
    <g>
      <path d="M738.56,721.1c-.92,0-1.84,0-2.73-.1-22.55-1.67-38.76-20.51-37.71-43.81.85-18.81,18.09-32.7,30.67-42.84,1.31-1.05,2.55-2.05,3.7-3,10.21-8.45,25.81-19.68,43.22-19.68a37.65,37.65,0,0,1,11,1.62,43.61,43.61,0,0,1,19.49,13c12.28,14,15.16,32.29,7.16,45.62-5.63,9.37-15.59,19.39-29.61,29.78-17.57,13-32.37,19.37-45.22,19.37Z" fill="#fff"/>
      <path d="M797.54,634a32,32,0,0,0-14.17-9.62c-15.59-4.74-32.19,6.56-43.51,15.91-10.69,8.85-29.49,22.16-30.18,37.44-.74,16.49,10.18,30.5,27,31.75,12.21.91,27.18-7.37,40.2-17,11.4-8.45,21.3-17.67,26.57-26.45C809.47,656,805.45,643,797.54,634Z" fill="#1d1d1b"/>
    </g>
    <path d="M340.22,1060.31a9.36,9.36,0,0,1-12.26.12L170.28,920.85a7.33,7.33,0,0,1-.12-11.08l91.38-84.3a8.29,8.29,0,0,1,11.68.47l142,153.94a8.28,8.28,0,0,1-.47,11.67Z" fill="#1d1d1b"/>
  </g>
  <path d="M600.2,57.59c-299.71,0-542.67,243-542.67,542.66s243,542.67,542.67,542.67,542.66-243,542.66-542.67S899.9,57.59,600.2,57.59ZM151.09,600.25A447.16,447.16,0,0,1,248.9,320.47L880,951.55a447.16,447.16,0,0,1-279.78,97.81C352.16,1049.36,151.09,848.29,151.09,600.25Zm795.34,286L314.15,254A447.27,447.27,0,0,1,600.2,151.15c248,0,449.1,201.07,449.1,449.1A447.27,447.27,0,0,1,946.43,886.3Z" fill="#fe0000"/>
</svg>
